<svg width="35" height="21" viewBox="0 0 35 21" fill="none" xmlns="http://www.w3.org/2000/svg">
<g clip-path="url(#clip0_10_129)">
<path d="M34.4006 0H0.599343C0.440387 0 0.287942 0.0591599 0.175543 0.164466C0.063145 0.269772 0 0.412598 0 0.561523V20.4385C0 20.5874 0.063145 20.7302 0.175543 20.8356C0.287942 20.9409 0.440387 21 0.599343 21H34.4006C34.5596 21 34.712 20.9409 34.8245 20.8356C34.9368 20.7302 35 20.5874 35 20.4385V0.561523C35 0.412598 34.9368 0.269772 34.8245 0.164466C34.712 0.0591599 34.5596 0 34.4006 0ZM28.5052 12.1421C28.599 12.5401 28.696 12.9517 28.5699 13.1559C28.4345 13.3751 27.997 13.5024 27.574 13.6257C27.2402 13.7229 26.8951 13.8234 26.5875 13.9902C26.2903 14.1513 26.0333 14.377 25.7848 14.5953C25.4426 14.8959 25.1194 15.1798 24.8273 15.1798C24.535 15.1798 24.2118 14.8959 23.8697 14.5953C23.6211 14.377 23.3641 14.1512 23.0669 13.9902C22.7594 13.8234 22.4143 13.7229 22.0805 13.6257C21.6574 13.5024 21.2199 13.3751 21.0846 13.1559C20.9585 12.9517 21.0554 12.5401 21.1492 12.1421C21.2261 11.8153 21.3056 11.4775 21.3056 11.1317C21.3056 10.7859 21.2261 10.448 21.1492 10.1213C21.0554 9.72324 20.9585 9.31172 21.0846 9.10746C21.2199 8.88833 21.6574 8.76088 22.0805 8.63762C22.4143 8.54046 22.7594 8.4399 23.0669 8.27319C23.3641 8.11206 23.6211 7.88633 23.8697 7.66801C24.2118 7.36749 24.535 7.08358 24.8273 7.08358C25.1194 7.08358 25.4426 7.36749 25.7848 7.66801C26.0333 7.88633 26.2903 8.11206 26.5875 8.27319C26.8951 8.43982 27.2402 8.54038 27.574 8.63754C27.997 8.7608 28.4345 8.88825 28.5698 9.10738C28.696 9.31156 28.599 9.72308 28.5052 10.1211C28.4283 10.4478 28.3488 10.7857 28.3488 11.1315C28.3488 11.4775 28.4283 11.8154 28.5052 12.1421ZM26.7728 6.99523C26.7177 6.94807 26.6617 6.89895 26.6046 6.84887C26.1541 6.45311 25.5935 5.96061 24.8273 5.96061C24.0609 5.96061 23.5002 6.45311 23.0498 6.84887C22.8414 7.03184 22.6446 7.20472 22.4666 7.30122C22.2752 7.40492 22.0078 7.48286 21.7246 7.56529C21.1116 7.74385 20.4169 7.94616 20.047 8.54514C19.6876 9.12725 19.8422 9.7839 19.9787 10.3633C20.0446 10.6435 20.107 10.9083 20.107 11.1317C20.107 11.3551 20.0446 11.6199 19.9787 11.9002C19.8603 12.4026 19.7289 12.9631 19.9303 13.4828L17.4997 15.7875L2.03393 1.12305H32.9655L26.7728 6.99523ZM10.2381 10.5L1.19869 19.0709V1.92887L10.2381 10.5ZM11.0806 11.2988L17.0733 16.9811C17.1291 17.0339 17.1954 17.0759 17.2687 17.1045C17.3418 17.1332 17.4203 17.148 17.4996 17.148C17.5789 17.148 17.6575 17.1332 17.7306 17.1045C17.8038 17.0759 17.8702 17.0339 17.9259 16.9811L20.7236 14.3283C21.0385 14.4976 21.3933 14.6015 21.7246 14.6981C22.0078 14.7806 22.2753 14.8585 22.4666 14.9621C22.6446 15.0586 22.8414 15.2315 23.0498 15.4145C23.5002 15.8103 24.0609 16.3028 24.8273 16.3028C25.5934 16.3028 26.1541 15.8103 26.6046 15.4145C26.813 15.2315 27.0097 15.0586 27.1878 14.962C27.3038 14.8992 27.448 14.8459 27.6064 14.7952L32.9656 19.8768H2.03377L11.0806 11.2988ZM28.8456 14.3726C29.1477 14.2241 29.4195 14.0225 29.6075 13.7183C29.9669 13.1362 29.8122 12.4795 29.6757 11.9002C29.6098 11.6199 29.5475 11.3551 29.5475 11.1317C29.5475 10.9083 29.6098 10.6435 29.6757 10.3633C29.8122 9.7839 29.9669 9.12733 29.6074 8.54514C29.2374 7.94616 28.5428 7.74385 27.9297 7.56529L27.8739 7.54897L33.8013 1.92827V19.0714L28.8456 14.3726Z" fill="black"/>
<path d="M24.8273 8.27271C23.1446 8.27271 21.7757 9.55516 21.7757 11.1316C21.7757 12.708 23.1446 13.9904 24.8273 13.9904C26.5099 13.9904 27.8787 12.708 27.8787 11.1316C27.8787 9.55516 26.5098 8.27271 24.8273 8.27271ZM24.8273 12.8674C23.8056 12.8674 22.9743 12.0887 22.9743 11.1316C22.9743 10.1744 23.8055 9.39572 24.8273 9.39572C25.8489 9.39572 26.6801 10.1744 26.6801 11.1316C26.6801 12.0887 25.8488 12.8674 24.8273 12.8674Z" fill="black"/>
</g>
<defs>
<clipPath id="clip0_10_129">
<rect width="35" height="21" fill="white"/>
</clipPath>
</defs>
</svg>
