<svg width="35" height="27" viewBox="0 0 35 27" fill="none" xmlns="http://www.w3.org/2000/svg">
<g clip-path="url(#clip0_10_132)">
<path d="M34.9528 7.50552L32.8214 2.45101C32.7849 2.36462 32.7288 2.28773 32.6573 2.22639C32.5857 2.16504 32.5007 2.12091 32.409 2.09743L29.8471 1.44112C22.3464 -0.480412 12.6533 -0.480332 5.15293 1.44112L2.59092 2.09743C2.49923 2.12091 2.41428 2.16504 2.34275 2.22639C2.27122 2.28773 2.21504 2.36462 2.17861 2.45101L0.0472293 7.50552C-0.0114871 7.64469 -0.0155989 7.80049 0.0356969 7.9425L0.888204 10.3013C0.937702 10.4383 1.03547 10.5532 1.16363 10.6249C1.29179 10.6966 1.44179 10.7203 1.5862 10.6917L9.68555 9.09115C9.80735 9.06711 9.91891 9.00703 10.0054 8.91894C10.092 8.83077 10.1494 8.71881 10.1701 8.59781L10.8714 4.49376C14.7319 3.53526 20.2681 3.53526 24.1284 4.49376L24.8298 8.59781C24.8505 8.71889 24.9079 8.83094 24.9945 8.91903C25.081 9.00711 25.1926 9.06719 25.3144 9.09124L33.4136 10.6918C33.558 10.7203 33.708 10.6966 33.8362 10.6248C33.9643 10.5532 34.0621 10.4384 34.1117 10.3013L34.9643 7.94258C35.0156 7.80055 35.0115 7.64474 34.9528 7.50552ZM1.86544 9.40039L1.42785 8.18964L9.27264 6.56949L9.03087 7.98436L1.86544 9.40039ZM10.1694 3.42292C10.0568 3.45359 9.95549 3.51537 9.87726 3.60099C9.79904 3.68662 9.74715 3.79254 9.72772 3.9063L9.492 5.2857L1.62742 6.90997L3.19388 3.19534L5.46079 2.61459C12.7742 0.741068 22.2256 0.740987 29.5394 2.61459L31.8062 3.19534L33.3728 6.90997L25.5082 5.2857L25.2724 3.9063C25.253 3.79255 25.2011 3.68665 25.1229 3.60102C25.0446 3.5154 24.9433 3.45362 24.8307 3.42292C20.6514 2.28331 14.3486 2.28331 10.1694 3.42292ZM33.1346 9.40039L25.9693 7.98436L25.7274 6.56949L33.5722 8.18964L33.1346 9.40039Z" fill="black"/>
<path d="M29.1288 11.0689C29.1034 10.9555 29.0454 10.8517 28.9621 10.7699C28.8786 10.6881 28.7732 10.6317 28.6582 10.6074L24.4804 9.72511L23.9543 6.33995C23.9321 6.19681 23.8588 6.06627 23.7476 5.97195C23.6364 5.87764 23.4946 5.82579 23.3481 5.82579H21.7122V5.03216C21.7122 4.69741 21.4377 4.42603 21.0988 4.42603C20.76 4.42603 20.4854 4.69741 20.4854 5.03216V5.82579H14.5147V5.03216C14.5147 4.69741 14.2401 4.42603 13.9012 4.42603C13.5624 4.42603 13.2878 4.69741 13.2878 5.03216V5.82579H11.652C11.5055 5.82579 11.3637 5.87764 11.2525 5.97195C11.1413 6.06627 11.068 6.19681 11.0457 6.33995L10.5196 9.72511L6.34192 10.6074C6.22697 10.6317 6.1215 10.6881 6.03805 10.7699C5.95461 10.8517 5.8967 10.9555 5.87122 11.0689L3.03447 23.6991C3.02481 23.7422 3.01992 23.7863 3.01991 23.8304V26.3939C3.01991 26.5546 3.08454 26.7089 3.19958 26.8225C3.31462 26.9362 3.47064 27.0001 3.63334 27.0001H31.3667C31.5294 27.0001 31.6855 26.9362 31.8005 26.8225C31.9155 26.7089 31.9802 26.5546 31.9802 26.3939V23.8304C31.9802 23.7863 31.9753 23.7422 31.9656 23.6991L29.1288 11.0689ZM6.98365 11.7115L11.1899 10.8231C11.3117 10.7974 11.4226 10.7358 11.508 10.6463C11.5934 10.5569 11.6492 10.4439 11.6681 10.3223L12.1785 7.03806H22.8217L23.332 10.3223C23.3509 10.4439 23.4067 10.5569 23.4921 10.6463C23.5775 10.7358 23.6884 10.7974 23.8101 10.8231L28.0165 11.7115L30.6023 23.2244H4.39784L6.98365 11.7115ZM10.322 24.4366L9.53181 25.7878H8.59934L9.38954 24.4366H10.322ZM11.739 24.4366H25.0881L24.2979 25.7878H10.9489L11.739 24.4366ZM4.24677 24.4366H7.97249L7.18231 25.7878H4.24677V24.4366ZM25.7149 25.7878L26.5051 24.4366H30.7533V25.7878H25.7149Z" fill="black"/>
<path d="M17.5 22.073C21.1306 22.073 24.0842 19.1545 24.0842 15.5672C24.0842 11.9798 21.1306 9.06128 17.5 9.06128C13.8695 9.06128 10.9159 11.9798 10.9159 15.5672C10.9159 19.1545 13.8695 22.073 17.5 22.073ZM17.5 10.2736C20.4541 10.2736 22.8574 12.6482 22.8574 15.5672C22.8574 18.4861 20.4541 20.8607 17.5 20.8607C14.546 20.8607 12.1427 18.4861 12.1427 15.5672C12.1427 12.6482 14.546 10.2736 17.5 10.2736Z" fill="black"/>
<path d="M17.5 17.8746C18.7877 17.8746 19.8355 16.8394 19.8355 15.5669C19.8355 14.2945 18.7877 13.2593 17.5 13.2593C16.2123 13.2593 15.1645 14.2945 15.1645 15.5669C15.1645 16.8394 16.2123 17.8746 17.5 17.8746ZM17.5 14.4715C18.1114 14.4715 18.6086 14.9629 18.6086 15.5669C18.6086 16.171 18.1114 16.6623 17.5 16.6623C16.8887 16.6623 16.3914 16.171 16.3914 15.5669C16.3914 14.963 16.8887 14.4715 17.5 14.4715Z" fill="black"/>
</g>
<defs>
<clipPath id="clip0_10_132">
<rect width="35" height="27" fill="white"/>
</clipPath>
</defs>
</svg>
