<svg width="17" height="27" viewBox="0 0 17 27" fill="none" xmlns="http://www.w3.org/2000/svg">
<g clip-path="url(#clip0_10_126)">
<path d="M8.49998 0C3.81319 0 0 4.0375 0 9.00003C0 10.4898 0.35177 11.9668 1.02049 13.277L8.03518 26.7099C8.12853 26.889 8.30649 27 8.49998 27C8.69347 27 8.87143 26.889 8.96485 26.7099L15.9821 13.2725C16.6482 11.9668 17 10.4898 17 8.99994C17 4.0375 13.1868 0 8.49998 0ZM15.0498 12.7326L8.49998 25.2751L1.95279 12.7376C1.37018 11.5961 1.06253 10.3035 1.06253 9.00003C1.06253 4.65766 4.39894 1.12503 8.49998 1.12503C12.6011 1.12503 15.9375 4.65771 15.9375 9.00003C15.9375 10.3035 15.6299 11.5961 15.0498 12.7326Z" fill="black"/>
<path d="M8.5 4.5C6.15663 4.5 4.25006 6.51873 4.25006 8.99998C4.25006 11.4813 6.15663 13.5 8.5 13.5C10.8434 13.5 12.75 11.4813 12.75 9.00006C12.75 6.51878 10.8434 4.5 8.5 4.5ZM8.5 12.3751C6.74233 12.3751 5.31254 10.8611 5.31254 9.00006C5.31254 7.13894 6.74233 5.62504 8.5 5.62504C10.2577 5.62504 11.6875 7.13894 11.6875 9.00006C11.6875 10.8611 10.2577 12.3751 8.5 12.3751Z" fill="black"/>
</g>
<defs>
<clipPath id="clip0_10_126">
<rect width="17" height="27" fill="white"/>
</clipPath>
</defs>
</svg>
